<?xml version="1.0"?>
<svg xmlns="http://www.w3.org/2000/svg" viewBox="0 0 64 64" width="512" height="512"><path d="m52.93518 21.13184v-2.26368l-1.82751-.80645a8.58059 8.58059 0 0 0 -.42762-1.36872l1.007-1.73718a10.21364 10.21364 0 0 0 -1.31091-1.83173l-1.93372.44281a8.35009 8.35009 0 0 0 -1.13372-.83856l-.18494-2.02093a9.76089 9.76089 0 0 0 -2.10386-.7074l-1.31781 1.529h-1.40409l-1.31778-1.529a9.75964 9.75964 0 0 0 -2.10388.70734l-.18493 2.02093a8.36535 8.36535 0 0 0 -1.13373.8385l-1.93368-.44287a10.21753 10.21753 0 0 0 -1.311 1.83179l1.007 1.73712a8.58007 8.58007 0 0 0 -.42761 1.36877l-1.82758.80652v2.26374l1.82751.80645a8.58826 8.58826 0 0 0 .42768 1.36871l-1.007 1.73712a10.21658 10.21658 0 0 0 1.31091 1.83179l1.93372-.44288a8.34427 8.34427 0 0 0 1.13372.83857l.18494 2.02093a9.7643 9.7643 0 0 0 2.10381.70747l1.3179-1.529h1.404l1.31784 1.529a9.768 9.768 0 0 0 2.10382-.7074l.18493-2.02087a8.3623 8.3623 0 0 0 1.13373-.8385l1.93368.44277a10.21738 10.21738 0 0 0 1.311-1.83173l-1.007-1.73714a8.57746 8.57746 0 0 0 .42761-1.36871zm-9.93518 2.86816a4 4 0 1 1 4-4 4 4 0 0 1 -4 4z" fill="#92b1f9"/><circle cx="29" cy="20" fill="#f73445" r="18"/><circle cx="29" cy="20" fill="#dfdeed" r="14"/><path d="m61.93518 53.13184v-2.26368l-1.82751-.80645a8.58059 8.58059 0 0 0 -.42762-1.36872l1.007-1.73718a10.21364 10.21364 0 0 0 -1.31091-1.83173l-1.93372.44281a8.35009 8.35009 0 0 0 -1.13372-.83856l-.18494-2.02093a9.76089 9.76089 0 0 0 -2.10386-.7074l-1.31781 1.529h-1.40409l-1.31778-1.529a9.75964 9.75964 0 0 0 -2.10388.70734l-.18493 2.02093a8.36535 8.36535 0 0 0 -1.13373.8385l-1.93368-.44287a10.21753 10.21753 0 0 0 -1.311 1.83179l1.007 1.73712a8.58007 8.58007 0 0 0 -.42761 1.36877l-1.82758.80652v2.26374l1.82751.80645a8.58826 8.58826 0 0 0 .42768 1.36871l-1.007 1.73712a10.21658 10.21658 0 0 0 1.31091 1.83179l1.93372-.44288a8.34427 8.34427 0 0 0 1.13372.83857l.18494 2.02093a9.7643 9.7643 0 0 0 2.10381.70747l1.3179-1.529h1.404l1.31784 1.529a9.768 9.768 0 0 0 2.10382-.7074l.18493-2.02087a8.3623 8.3623 0 0 0 1.13373-.8385l1.93368.44277a10.21738 10.21738 0 0 0 1.311-1.83173l-1.007-1.73714a8.57746 8.57746 0 0 0 .42761-1.36871zm-9.93518 2.86816a4 4 0 1 1 4-4 4 4 0 0 1 -4 4z" fill="#2c72ff"/><path d="m32 7a17.03837 17.03837 0 0 1 2.7417.241 13.93063 13.93063 0 0 0 -19.59833 14.6564 16.99305 16.99305 0 0 1 16.85663-14.8974z" fill="#ededf4"/><path d="m37.16931 8.64655c-.07153.02423-.14557.04272-.21655.06817l-.48688-.54346a13.9547 13.9547 0 0 0 -1.45331-.79986 14.22715 14.22715 0 0 0 -2.42913 1.46008l.66284 2.01831a12.064 12.064 0 0 0 -1.39612 1.39621l-2.01837-.663a13.96322 13.96322 0 0 0 -1.71656 2.93628l1.59961 1.43322a11.87909 11.87909 0 0 0 -.51287 1.9032l-2.0879.43885v3.41076l2.08783.43878a11.87733 11.87733 0 0 0 .51282 1.90314l-1.59967 1.43317a13.96613 13.96613 0 0 0 1.71643 2.93615l2.01831-.66284a12.064 12.064 0 0 0 1.39621 1.39613l-.663 2.01837a14.22047 14.22047 0 0 0 2.42956 1.46039 13.97089 13.97089 0 0 0 1.45264-.79944l.48737-.544c.071.02551.1452.044.21679.06823a13.969 13.969 0 0 0 -.00006-22.70684z" fill="#92b1f9"/><path d="m43 20a13.92537 13.92537 0 0 0 -2.501-7.97467 7.98976 7.98976 0 0 0 0 15.94934 13.92537 13.92537 0 0 0 2.501-7.97467z" fill="#fed966"/><path d="m14.613 35.291-12.613 15.709 5 4 12.799-15.938z" fill="#f73445"/><path d="m14.503 29.651-3.503 4.349 11 8 3.479-4.349z" fill="#e20e28"/><path d="m52 46a6 6 0 1 0 6 6 6 6 0 0 0 -6-6zm0 10a4 4 0 1 1 4-4 4 4 0 0 1 -4 4z" fill="#7ca4dd"/></svg>
