<?xml version="1.0" encoding="iso-8859-1"?>
<!-- Generator: Adobe Illustrator 19.0.0, SVG Export Plug-In . SVG Version: 6.00 Build 0)  -->
<svg version="1.1" id="Capa_1" xmlns="http://www.w3.org/2000/svg" xmlns:xlink="http://www.w3.org/1999/xlink" x="0px" y="0px"
	 viewBox="0 0 464 464" style="enable-background:new 0 0 464 464;" xml:space="preserve">
<path style="fill:#4398D1;" d="M432,0H272c-17.673,0-32,14.327-32,32v112c0,17.673,14.327,32,32,32h40v48l64-48h56
	c17.673,0,32-14.327,32-32V32C464,14.327,449.673,0,432,0z"/>
<path style="fill:#BDBDBD;" d="M72,256l64,112l64-112H72z"/>
<path style="fill:#3E8CC7;" d="M128,248h16v144h-16V248z"/>
<path style="fill:#FEC9A3;" d="M104,192h64v64h-64V192z"/>
<path style="fill:#787D82;" d="M312,288l-24,80l-15.872-74.056c-4.742-22.133-24.301-37.945-46.936-37.944H200l-64,112L72,256H48
	c-26.51,0-48,21.49-48,48v160h224V312l23.488,88.096c6.117,22.938,29.671,36.573,52.609,30.456
	c13.971-3.726,25.132-14.226,29.703-27.944L368,288H312z"/>
<g>
	<path style="fill:#DBDBDB;" d="M72,256l32,56l32-56H72z"/>
	<path style="fill:#DBDBDB;" d="M168,312l-32-56h64L168,312z"/>
</g>
<path style="fill:#FEC9A3;" d="M368,288h-56l4.968-19.88c1.781-7.125,8.184-12.123,15.528-12.12H400
	C400,273.673,385.673,288,368,288L368,288z"/>
<path style="fill:#DBDBDB;" d="M368,288h-56l-9.6,32h54.936L368,288z"/>
<path style="fill:#F7B788;" d="M104,192v31.368c19.781,11.509,44.219,11.509,64,0V192H104z"/>
<path style="fill:#FEC9A3;" d="M104,80c-8.464-0.018-16.7-2.743-23.504-7.776C74.928,81.888,71.998,92.846,72,104v48
	c0,35.346,28.654,64,64,64s64-28.654,64-64v-40l-32-32H104z"/>
<g>
	<path style="fill:#75462E;" d="M136,40H64c0.161,22.024,17.976,39.839,40,40h64l32,32v-8C200,68.654,171.346,40,136,40z"/>
	<path style="fill:#75462E;" d="M96,120h16v16H96V120z"/>
	<path style="fill:#75462E;" d="M160,120h16v16h-16V120z"/>
</g>
<path style="fill:#F7B788;" d="M128,120h16v40h-16V120z"/>
<path style="fill:#71767A;" d="M0,464h224V357.512C155.968,404.497,80.119,439.006,0,459.424V464z"/>
<path style="fill:#616569;" d="M40,336h16v128H40V336z"/>
<path style="fill:#3E8CC7;" d="M445.832,3.264C407.12,89.096,337.456,144.72,286.48,176H312v48l64-48h56c17.673,0,32-14.327,32-32
	V32C463.979,19.723,456.914,8.548,445.832,3.264L445.832,3.264z"/>
<path style="fill:#DBDBDB;" d="M392,72c-0.042-10.134-6.445-19.15-16-22.528V32h-16v16h-16V32h-16v16h-8c-4.418,0-8,3.582-8,8v64
	c0,4.418,3.582,8,8,8h8v16h16v-16h16v16h16v-17.472c12.454-4.355,19.019-17.981,14.664-30.434c-1.045-2.989-2.674-5.74-4.792-8.094
	C389.822,83.607,392.005,77.907,392,72z M368,112h-40V96h40c4.418,0,8,3.582,8,8C376,108.418,372.418,112,368,112z M368,80h-40V64
	h40c4.418,0,8,3.582,8,8S372.418,80,368,80z"/>
<g>
</g>
<g>
</g>
<g>
</g>
<g>
</g>
<g>
</g>
<g>
</g>
<g>
</g>
<g>
</g>
<g>
</g>
<g>
</g>
<g>
</g>
<g>
</g>
<g>
</g>
<g>
</g>
<g>
</g>
</svg>
